# xmcd
#
# Track frame offsets:
#	150
#	10712
#	20772
#	33260
#	43795
#	54070
#	64127
#	74245
#	84655
#	92920
#	102502
#	109332
#	114995
#	126467
#	132112
#	140797
#	147972
#	160150
#	170307
#	182730
#	195465
#	206212
#	217802
#	229165
#	241477
#	248897
#	257837
#	267617
#	272880
#
# Disc length: 3818 seconds
# Revision: 1
# Processed by: cddbd v1.5.2PL0 Copyright (c) Steve Scherf et al.
# Submitted via: dBpowerAMP V12.0
#
DISCID=bc0ee81d
DTITLE=Buck Owens - Act Naturally: The Buck Owens Recordings 1953-1964, CD01 - CD05
DYEAR=2008
DGENRE=Country
TTITLE0=Down on the Corner of Love
TTITLE1=It Don't Show on Me
TTITLE2=The House Down the Block
TTITLE3=Right After the Dance
TTITLE4=Hot Dog
TTITLE5=Rhythm and Booze
TTITLE6=There Goes My Love
TTITLE7=Sweethearts in Heaven
TTITLE8=Honeysuckle
TTITLE9=Country Girl (Leavin' Dirty Tracks)
TTITLE10=You're Fer Me
TTITLE11=Blue Love
TTITLE12=Please Don't Take Her from Me
TTITLE13=Three Dimension Love
TTITLE14=Why Don't My Mommy Stay with My Daddy and Me?
TTITLE15=I'm Gonna Blow
TTITLE16=I Found You Out
TTITLE17=You're Just What the Doctor Ordered
TTITLE18=Rightfully Mine
TTITLE19=Goose Rock
TTITLE20=Louisiana Swing
TTITLE21=I'm Gonna Set You Free
TTITLE22=Mean, Mean, Mean
TTITLE23=Last Dance Tonight
TTITLE24=Down on the Corner of Love
TTITLE25=It Don't Show on Me
TTITLE26=The House Down the Block
TTITLE27=Right After the Dance
TTITLE28=Blue Love
EXTD=
EXTT0=
EXTT1=
EXTT2=
EXTT3=
EXTT4=
EXTT5=
EXTT6=
EXTT7=
EXTT8=
EXTT9=
EXTT10=
EXTT11=
EXTT12=
EXTT13=
EXTT14=
EXTT15=
EXTT16=
EXTT17=
EXTT18=
EXTT19=
EXTT20=
EXTT21=
EXTT22=
EXTT23=
EXTT24=
EXTT25=
EXTT26=
EXTT27=
EXTT28=
PLAYORDER=
